# Blender v2.83.1 OBJ File: ''
# www.blender.org
mtllib triangles.mtl
o Triangle_Plane
v -0.372112 0.367633 -0.000000
v -0.372112 -0.264625 -0.006410
v 0.260146 0.367633 0.000000
vt 0.000000 0.000000
vt 0.000000 0.000000
vt 0.000000 0.000000
vn -0.0000 -0.0101 0.9999
usemtl None
s 1
f 1/1/1 2/2/1 3/3/1
o Triangle.001_Plane.002
v -0.134820 -0.527788 -0.000000
v 0.412731 -0.211659 -0.032112
v -0.450949 0.019764 0.034483
vt 0.000000 0.000000
vt 0.000000 0.000000
vt 0.000000 0.000000
vn 0.0711 -0.0218 0.9972
usemtl None.002
s 1
f 4/4/2 5/5/2 6/6/2
o Triangle.002_Plane.003
v 0.547239 0.122086 0.000000
v -0.000312 0.438215 -0.046706
v 0.231111 -0.425465 0.048514
vt 0.000000 0.000000
vt 0.000000 0.000000
vt 0.000000 0.000000
vn -0.0255 0.1028 0.9944
usemtl None.001
s 1
f 7/7/3 8/8/3 9/9/3
